FFmpeg version SVN-r0.5.1-4:0.5.1-1ubuntu1, Copyright (c) 2000-2009 Fabrice Bellard, et al.
  configuration: --extra-version=4:0.5.1-1ubuntu1 --prefix=/usr --enable-avfilter --enable-avfilter-lavf --enable-vdpau --enable-bzlib --enable-libgsm --enable-libschroedinger --enable-libspeex --enable-libtheora --enable-libvorbis --enable-pthreads --enable-zlib --disable-stripping --disable-vhook --enable-runtime-cpudetect --enable-gpl --enable-postproc --enable-swscale --enable-x11grab --enable-libdc1394 --enable-shared --disable-static
  libavutil     49.15. 0 / 49.15. 0
  libavcodec    52.20. 1 / 52.20. 1
  libavformat   52.31. 0 / 52.31. 0
  libavdevice   52. 1. 0 / 52. 1. 0
  libavfilter    0. 4. 0 /  0. 4. 0
  libswscale     0. 7. 1 /  0. 7. 1
  libpostproc   51. 2. 0 / 51. 2. 0
  built on Mar  4 2010 12:35:30, gcc: 4.4.3

Seems stream 0 codec frame rate differs from container frame rate: 59.94 (5994/100) -> 29.97 (30000/1001)
Input #0, mov,mp4,m4a,3gp,3g2,mj2, from '/home/willg/.miro/Movies/GeekBeat-TV--Large-MP4-/geekbeattv--0075--2010-12-15--large.h264.mp4':
  Duration: 00:06:08.56, start: 0.000000, bitrate: 1346 kb/s
    Stream #0.0(eng): Video: h264, yuv420p, 640x360, 29.97 tbr, 29.97 tbn, 59.94 tbc
    Stream #0.1(eng): Audio: aac, 48000 Hz, stereo, s16
    Stream #0.2(eng): Data: rtp  / 0x20707472
    Stream #0.3(eng): Data: rtp  / 0x20707472
Output #0, mp3, to 'foo.2.mp4':
    Stream #0.0(eng): Audio: libmp3lame, 48000 Hz, stereo, s16, 64 kb/s
Stream mapping:
  Stream #0.1 -> #0.0
Press [q] to stop encoding
size=      78kB time=9.98 bitrate=  64.0kbits/s    size=     150kB time=19.15 bitrate=  64.0kbits/s    size=     225kB time=28.75 bitrate=  64.0kbits/s    size=     311kB time=39.84 bitrate=  64.0kbits/s    size=     407kB time=52.15 bitrate=  64.0kbits/s    size=     498kB time=63.72 bitrate=  64.0kbits/s    size=     594kB time=76.03 bitrate=  64.0kbits/s    size=     691kB time=88.42 bitrate=  64.0kbits/s    size=     783kB time=100.20 bitrate=  64.0kbits/s    size=     879kB time=112.49 bitrate=  64.0kbits/s    size=     974kB time=124.63 bitrate=  64.0kbits/s    size=    1025kB time=131.16 bitrate=  64.0kbits/s    size=    1113kB time=142.46 bitrate=  64.0kbits/s    size=    1204kB time=154.06 bitrate=  64.0kbits/s    size=    1290kB time=165.17 bitrate=  64.0kbits/s    size=    1383kB time=177.00 bitrate=  64.0kbits/s    size=    1464kB time=187.44 bitrate=  64.0kbits/s    size=    1563kB time=200.09 bitrate=  64.0kbits/s    size=    1643kB time=210.36 bitrate=  64.0kbits/s    size=    1711kB time=218.95 bitrate=  64.0kbits/s    size=    1807kB time=231.24 bitrate=  64.0kbits/s    size=    1896kB time=242.69 bitrate=  64.0kbits/s    size=    1984kB time=253.97 bitrate=  64.0kbits/s    size=    2079kB time=266.14 bitrate=  64.0kbits/s    size=    2156kB time=275.90 bitrate=  64.0kbits/s    size=    2198kB time=281.38 bitrate=  64.0kbits/s    size=    2241kB time=286.87 bitrate=  64.0kbits/s    size=    2309kB time=295.58 bitrate=  64.0kbits/s    size=    2375kB time=303.94 bitrate=  64.0kbits/s    size=    2437kB time=311.95 bitrate=  64.0kbits/s    size=    2524kB time=323.02 bitrate=  64.0kbits/s    size=    2620kB time=335.33 bitrate=  64.0kbits/s    size=    2707kB time=346.54 bitrate=  64.0kbits/s    size=    2786kB time=356.57 bitrate=  64.0kbits/s    size=    2862kB time=366.31 bitrate=  64.0kbits/s    size=    2879kB time=368.57 bitrate=  64.0kbits/s    
video:0kB audio:2879kB global headers:0kB muxing overhead 0.001085%
